<svg width="49" height="48" viewBox="0 0 49 48" fill="none" xmlns="http://www.w3.org/2000/svg">
<path d="M42.5 20C42.5 34 24.5 46 24.5 46C24.5 46 6.5 34 6.5 20C6.5 15.2261 8.39642 10.6477 11.7721 7.27208C15.1477 3.89642 19.7261 2 24.5 2C29.2739 2 33.8523 3.89642 37.2279 7.27208C40.6036 10.6477 42.5 15.2261 42.5 20Z" stroke="#F59D31" stroke-width="2" stroke-linecap="round" stroke-linejoin="round"/>
<path d="M24.5 26C27.8137 26 30.5 23.3137 30.5 20C30.5 16.6863 27.8137 14 24.5 14C21.1863 14 18.5 16.6863 18.5 20C18.5 23.3137 21.1863 26 24.5 26Z" stroke="#F59D31" stroke-width="2" stroke-linecap="round" stroke-linejoin="round"/>
</svg>
